<?xml version="1.0" standalone="no"?>
<!DOCTYPE svg PUBLIC "-//W3C//DTD SVG 20010904//EN"
 "http://www.w3.org/TR/2001/REC-SVG-20010904/DTD/svg10.dtd">
<svg version="1.0" xmlns="http://www.w3.org/2000/svg"
 width="260.000000pt" height="260.000000pt" viewBox="0 0 260.000000 260.000000"
 preserveAspectRatio="xMidYMid meet">
<metadata>
Created by potrace 1.14, written by Peter Selinger 2001-2017
</metadata>
<g transform="translate(0.000000,260.000000) scale(0.100000,-0.100000)"
fill="#000000" stroke="none">
<path d="M161 2537 c-38 -9 -71 -51 -71 -88 0 -18 11 -41 29 -61 l29 -33 181
3 181 4 0 -1122 c-1 -1022 0 -1124 15 -1140 42 -46 124 -50 165 -7 l21 22 -1
1124 -1 1124 173 -5 c134 -4 179 -2 200 9 58 29 67 105 17 147 -17 14 -38 26
-47 26 -9 0 -207 1 -439 3 -233 1 -436 -1 -452 -6z"/>
<path d="M1790 2530 c-167 -18 -299 -92 -365 -205 -54 -92 -54 -86 -55 -1187
-1 -716 2 -1023 9 -1037 14 -25 79 -46 115 -37 14 3 37 16 51 29 l26 22 -1
788 -1 787 311 0 311 0 -1 -786 -2 -787 26 -26 c38 -37 114 -37 151 0 l26 26
-1 1179 -1 1179 -31 32 -32 33 -235 -1 c-130 -1 -265 -5 -301 -9z m400 -415
l0 -245 -310 0 -310 0 0 153 c0 144 2 156 25 204 31 62 96 108 180 126 11 3
109 5 218 6 l197 1 0 -245z"/>
</g>
</svg>
